<?xml version="1.0" encoding="UTF-8"?>
<svg version="1.1" xmlns="http://www.w3.org/2000/svg" width="864" height="142">
<path d="M0 0 C285.12 0 570.24 0 864 0 C864 46.86 864 93.72 864 142 C578.88 142 293.76 142 0 142 C0 95.14 0 48.28 0 0 Z " fill="#FDFDFD" transform="translate(0,0)"/>
<path d="M0 0 C6.0194141 4.01294273 11.73571601 8.02328989 17.375 12.5 C24.52612539 18.12357641 31.78325893 23.57518633 39.14038086 28.92602539 C42.88455593 31.66028155 46.57490293 34.42843897 50.16796875 37.359375 C51.12848145 38.14018433 51.12848145 38.14018433 52.10839844 38.93676758 C53.29419157 39.9096814 54.4712862 40.89333379 55.63769531 41.8894043 C58.48001005 44.29215505 58.48001005 44.29215505 62.0078125 45.0625 C64.89057355 43.52502744 67.39820353 41.59820682 69.9375 39.5625 C71.10923311 38.64174648 72.28111195 37.7211784 73.453125 36.80078125 C74.34354492 36.09622803 74.34354492 36.09622803 75.25195312 35.37744141 C77.87714116 33.30882256 80.53324008 31.28111514 83.1875 29.25 C87.71333621 25.7749291 92.21865676 22.27408986 96.71826172 18.76513672 C102.80731261 14.01793458 108.89856784 9.27481706 115.0625 4.625 C116.00222656 3.91601562 116.94195312 3.20703125 117.91015625 2.4765625 C120 1 120 1 121 1 C124.14174626 23.17831187 124.14174626 23.17831187 119.37548828 30.49316406 C114.84899497 34.99110907 109.39130785 38.09724374 103.88720703 41.2578125 C99.04655034 44.17874317 94.68941193 47.69900953 90.25 51.1875 C88.51002172 52.51851799 86.76786536 53.84669398 85.0234375 55.171875 C82.53890522 57.0651249 80.05443946 58.95845352 77.57128906 60.85351562 C75.34234437 62.5523781 73.10934984 64.24575588 70.875 65.9375 C70.21790039 66.43983154 69.56080078 66.94216309 68.88378906 67.4597168 C66.26775629 69.43361339 64.13226113 70.95591296 61 72 C59.18505859 71.03466797 59.18505859 71.03466797 57.1484375 69.4921875 C56.38716553 68.92330811 55.62589355 68.35442871 54.84155273 67.76831055 C54.02759033 67.14351807 53.21362793 66.51872559 52.375 65.875 C51.538479 65.2456958 50.70195801 64.6163916 49.84008789 63.96801758 C47.21767435 61.99028584 44.60746737 59.9973853 42 58 C41.16742676 57.36400879 40.33485352 56.72801758 39.47705078 56.07275391 C33.15837473 51.24498722 33.15837473 51.24498722 30.25732422 49.00146484 C29.59361816 48.48922363 28.92991211 47.97698242 28.24609375 47.44921875 C27.66529053 46.99893311 27.0844873 46.54864746 26.48608398 46.0847168 C24.97324979 44.91741571 24.97324979 44.91741571 23 44 C23 68.42 23 92.84 23 118 C15.41 118 7.82 118 0 118 C0 79.06 0 40.12 0 0 Z " fill="#040404" transform="translate(16,5)"/>
<path d="M0 0 C6.27 0 12.54 0 19 0 C22.81479475 9.01044756 26.366172 18.09409949 29.8125 27.25 C31.524375 31.7875 33.23625 36.325 35 41 C40.28 27.47 45.56 13.94 51 0 C57.27 0 63.54 0 70 0 C74.03605997 37.28457342 74.03605997 37.28457342 75.25 52.1875 C75.32976074 53.13874756 75.40952148 54.08999512 75.49169922 55.07006836 C75.98282371 61.39513933 76.06164224 67.6559859 76 74 C70.39 74 64.78 74 59 74 C58.79503906 71.21949219 58.59007812 68.43898438 58.37890625 65.57421875 C58.17792381 62.88347469 57.97562288 60.1928328 57.77319336 57.50219727 C57.63314087 55.63120635 57.49446082 53.76011217 57.35717773 51.88891602 C57.15969197 49.2004005 56.95728477 46.51229411 56.75390625 43.82421875 C56.6934462 42.98662521 56.63298615 42.14903168 56.57069397 41.28605652 C56.31938194 38.01583579 56.04156662 35.12469987 55 32 C54.61666504 33.09465576 54.23333008 34.18931152 53.83837891 35.31713867 C52.4119158 39.38963057 50.98400553 43.46161382 49.55566406 47.53344727 C48.93840873 49.29372605 48.32154264 51.05414137 47.70507812 52.81469727 C46.81743748 55.34948397 45.9283848 57.88377164 45.0390625 60.41796875 C44.76502594 61.20149216 44.49098938 61.98501556 44.20864868 62.7922821 C42.88376539 66.56337011 41.52486163 70.3036582 40 74 C36.7 74 33.4 74 30 74 C25.05 59.81 20.1 45.62 15 31 C14.525625 36.053125 14.05125 41.10625 13.5625 46.3125 C13.41498291 47.88298096 13.26746582 49.45346191 13.11547852 51.0715332 C12.39859235 58.71331705 11.69006043 66.35573834 11 74 C5.39 74 -0.22 74 -6 74 C-6.18672042 65.90489163 -5.45640111 57.95458541 -4.6875 49.90234375 C-4.55261656 48.45792458 -4.41810122 47.013471 -4.28393555 45.56898499 C-3.93249334 41.79580236 -3.57610314 38.02310346 -3.21862793 34.25048828 C-2.85365946 30.3892808 -2.49344504 26.52763006 -2.1328125 22.66601562 C-1.42648779 15.11023765 -0.71448775 7.55501125 0 0 Z " fill="#030303" transform="translate(195,24)"/>
<path d="M0 0 C1.58206057 0.00667536 3.16410534 0.0186375 4.74609375 0.03515625 C5.55240234 0.03966797 6.35871094 0.04417969 7.18945312 0.04882812 C9.18753131 0.06065107 11.18557158 0.07858711 13.18359375 0.09765625 C13.57370384 1.07459694 13.57370384 1.07459694 13.97169495 2.0712738 C16.45564032 8.2912695 18.94047408 14.5109095 21.42623997 20.73017788 C22.70332977 23.92548177 23.98010772 27.12090945 25.25610352 30.31665039 C26.73225574 34.01357552 28.20967104 37.70999478 29.6875 41.40625 C30.40360947 43.19825333 30.40360947 43.19825333 31.13418579 45.02645874 C34.12113306 52.48693828 37.14217677 59.93188977 40.2769928 67.33164978 C42.18359375 71.88349069 42.18359375 71.88349069 42.18359375 74.09765625 C36.24359375 74.09765625 30.30359375 74.09765625 24.18359375 74.09765625 C19.18359375 62.47265625 19.18359375 62.47265625 19.18359375 59.09765625 C9.61359375 59.42765625 0.04359375 59.75765625 -9.81640625 60.09765625 C-11.46640625 64.71765625 -13.11640625 69.33765625 -14.81640625 74.09765625 C-21.08640625 74.09765625 -27.35640625 74.09765625 -33.81640625 74.09765625 C-27.36999253 56.97903062 -20.60027824 39.99703846 -13.75390625 23.03515625 C-13.10523087 21.42445755 -13.10523087 21.42445755 -12.44345093 19.78121948 C-11.2047546 16.70714364 -9.96239964 13.63457475 -8.71875 10.5625 C-8.33998718 9.62196777 -7.96122437 8.68143555 -7.57098389 7.71240234 C-7.22263489 6.85461182 -6.87428589 5.99682129 -6.51538086 5.11303711 C-6.21023056 4.3587291 -5.90508026 3.60442108 -5.59068298 2.82725525 C-4.14111396 -0.41082878 -4.006813 0.10252848 0 0 Z " fill="#030303" transform="translate(784.81640625,23.90234375)"/>
<path d="M0 0 C1.59237883 0.03518084 3.18483304 0.06710787 4.77734375 0.09570312 C8.6451193 0.17215001 12.5092108 0.29254087 16.375 0.4375 C13.54149098 3.34307337 10.76221809 6.05203164 7.46875 8.42578125 C6.73591797 8.95880859 6.00308594 9.49183594 5.24804688 10.04101562 C4.46494141 10.60498047 3.68183594 11.16894531 2.875 11.75 C-4.19180147 16.89498289 -11.18717022 22.11989354 -18.125 27.4375 C-25.56620342 33.13564482 -33.0721155 38.73271328 -40.63891602 44.26269531 C-47.14677531 49.03837515 -53.51938088 53.97674952 -59.84057617 58.99658203 C-60.89208862 59.82585205 -60.89208862 59.82585205 -61.96484375 60.671875 C-62.57706787 61.15881836 -63.18929199 61.64576172 -63.82006836 62.14746094 C-65.6795658 63.47649983 -67.55688147 64.47171288 -69.625 65.4375 C-70.09172119 65.07100342 -70.55844238 64.70450684 -71.03930664 64.3269043 C-72.44657602 63.22329525 -73.85568654 62.12203197 -75.26611328 61.02246094 C-76.89598822 59.745249 -78.51796851 58.45790507 -80.13232422 57.16113281 C-84.01046468 54.07962038 -87.75105713 51.24879158 -92.16015625 48.97265625 C-100.27750422 44.57882775 -100.27750422 44.57882775 -102.625 40.4375 C-104.41315844 31.90882786 -103.55025069 23.03616312 -102.625 14.4375 C-98.98912662 16.17795404 -96.0541777 18.31918551 -92.875 20.8125 C-91.73120406 21.70406913 -90.58663447 22.59464639 -89.44140625 23.484375 C-88.83184082 23.95810547 -88.22227539 24.43183594 -87.59423828 24.91992188 C-84.02675053 27.66917849 -80.41887037 30.36457384 -76.8125 33.0625 C-76.10061523 33.59536621 -75.38873047 34.12823242 -74.65527344 34.67724609 C-72.9790242 35.93134411 -71.30208997 37.18452649 -69.625 38.4375 C-64.91111834 35.86199573 -60.67202884 33.07966273 -56.5 29.6875 C-55.28502699 28.71727949 -54.0687957 27.74863337 -52.8515625 26.78125 C-52.18672852 26.25273438 -51.52189453 25.72421875 -50.83691406 25.1796875 C-46.5509312 21.80388467 -42.21240438 18.49679596 -37.875 15.1875 C-37.01245605 14.5265332 -36.14991211 13.86556641 -35.26123047 13.18457031 C-33.55980124 11.88747004 -31.84749043 10.60451713 -30.12451172 9.33618164 C-27.61208754 7.48301652 -27.61208754 7.48301652 -25.37939453 5.41186523 C-17.56032375 -1.17283446 -9.68496118 -0.37420544 0 0 Z " fill="#036FFF" transform="translate(146.625,44.5625)"/>
<path d="M0 0 C1.30453125 -0.02578125 2.6090625 -0.0515625 3.953125 -0.078125 C8.09023783 0.27940327 11.72190691 1.22190691 14.75 4.25 C15.08 3.26 15.41 2.27 15.75 1.25 C21.03 1.25 26.31 1.25 31.75 1.25 C31.75 16.43 31.75 31.61 31.75 47.25 C26.47 47.25 21.19 47.25 15.75 47.25 C15.255 45.27 15.255 45.27 14.75 43.25 C14.0075 43.889375 13.265 44.52875 12.5 45.1875 C7.00172663 49.31120503 0.39251015 48.85307 -6.25 48.25 C-12.27259775 46.4859182 -16.83061088 41.32043981 -20.25 36.25 C-23.10659907 29.26085427 -23.54868541 21.66553039 -21.41015625 14.39453125 C-17.14794608 4.90860222 -10.24204792 0.12049468 0 0 Z " fill="#020202" transform="translate(297.25,50.75)"/>
<path d="M0 0 C5.28 0 10.56 0 16 0 C16.33 15.18 16.66 30.36 17 46 C23.93 39.07 23.93 39.07 31 32 C35.85215986 30.8871193 37.81051135 30.51950661 42.375 31.125 C43.3134375 31.18816406 44.251875 31.25132813 45.21875 31.31640625 C47.49353939 31.47889121 49.73919878 31.70550686 52 32 C47.76183463 37.06623768 43.32591037 41.80038069 38.625 46.4375 C37.66400391 47.39172852 37.66400391 47.39172852 36.68359375 48.36523438 C35.12469121 49.91250332 33.56348584 51.45736492 32 53 C33.53660728 56.666116 35.74589914 58.96353371 38.5703125 61.73046875 C39.46621094 62.61541016 40.36210937 63.50035156 41.28515625 64.41210938 C42.69087891 65.78592773 42.69087891 65.78592773 44.125 67.1875 C45.98493222 69.01116701 47.8407461 70.83882569 49.6953125 72.66796875 C50.52047363 73.47516357 51.34563477 74.2823584 52.19580078 75.11401367 C54 77 54 77 54 78 C37.97501855 80.53549345 37.97501855 80.53549345 31.38427734 76.33154297 C25.99006709 71.75991023 21.44444551 66.48071518 17 61 C16.67 66.61 16.34 72.22 16 78 C10.72 78 5.44 78 0 78 C0 52.26 0 26.52 0 0 Z " fill="#020202" transform="translate(385,20)"/>
<path d="M0 0 C4.11949119 2.46932037 6.42088739 5.46360298 8.7109375 9.625 C9.3915625 10.8315625 9.3915625 10.8315625 10.0859375 12.0625 C10.7109375 14.625 10.7109375 14.625 10.7109375 23.625 C-0.5090625 23.625 -11.7290625 23.625 -23.2890625 23.625 C-20.8688134 29.25606761 -20.8688134 29.25606761 -18.2890625 31.625 C-15.75923653 31.98304211 -15.75923653 31.98304211 -12.9140625 31.9375 C-11.95757812 31.95425781 -11.00109375 31.97101563 -10.015625 31.98828125 C-6.90257658 31.57350546 -5.66949744 30.58963844 -3.2890625 28.625 C1.44410649 28.75647692 5.61314806 31.43883442 9.7109375 33.625 C5.78120585 40.27531509 1.2292924 43.50932767 -6.2890625 45.625 C-15.93132049 46.48631539 -23.34562808 45.92062294 -31.4765625 40.5 C-36.02479849 36.28820887 -38.90808956 31.59371367 -39.703125 25.3984375 C-39.93640703 16.17319362 -38.25307469 10.11230731 -32.0390625 3.19921875 C-22.65675534 -5.24066916 -10.95541121 -4.95668991 0 0 Z " fill="#060606" transform="translate(477.2890625,53.375)"/>
<path d="M0 0 C0.80139404 0.00499512 1.60278809 0.00999023 2.4284668 0.01513672 C8.46209133 0.19402958 12.75637828 1.08502686 17.125 5.5 C17.62128906 5.98082031 18.11757813 6.46164063 18.62890625 6.95703125 C24.38304296 13.17018741 24.125 18.06787615 24.125 26.5 C13.235 26.5 2.345 26.5 -8.875 26.5 C-6.72823337 33.09864109 -6.72823337 33.09864109 -3.96875 34.94921875 C-0.19523918 35.94187738 3.36443141 35.38443002 7.125 34.5 C8.47613205 33.52418241 9.81446944 32.52970259 11.125 31.5 C15.74555745 31.62487993 19.27635207 34.16062577 23.125 36.5 C21.13574997 41.87097508 16.80307851 44.65075345 11.9140625 47.125 C8.05749064 48.71228218 4.32669238 49.00094349 0.1875 48.9375 C-0.86908813 48.92396484 -0.86908813 48.92396484 -1.94702148 48.91015625 C-10.02034628 48.64082722 -14.24888281 46.47445838 -19.6875 40.6875 C-24.65032201 34.52362974 -26.47765662 29.09289548 -26.21875 21.20703125 C-25.26801177 13.71996765 -20.71811726 8.06132671 -14.875 3.5 C-9.87418653 0.37814715 -5.73553478 -0.04643194 0 0 Z " fill="#040404" transform="translate(675.875,50.5)"/>
<path d="M0 0 C6.51041634 2.26950998 10.32098445 5.02478139 13.45703125 11.296875 C13.54378663 13.99580681 13.57261022 16.66856731 13.5546875 19.3671875 C13.55327255 20.16341522 13.5518576 20.95964294 13.55039978 21.77999878 C13.5447947 24.3273288 13.53224139 26.87457147 13.51953125 29.421875 C13.5145169 31.14713415 13.50995388 32.87239467 13.50585938 34.59765625 C13.49567378 38.83079004 13.47609945 43.06373454 13.45703125 47.296875 C8.17703125 47.296875 2.89703125 47.296875 -2.54296875 47.296875 C-2.56875 45.17765625 -2.59453125 43.0584375 -2.62109375 40.875 C-2.65953762 38.81627274 -2.7046897 36.75779398 -2.75048828 34.69921875 C-2.77866486 33.27160563 -2.79989602 31.84383747 -2.81396484 30.41601562 C-2.83544267 28.35987168 -2.88210849 26.30558498 -2.93359375 24.25 C-2.95454102 23.01411133 -2.97548828 21.77822266 -2.99707031 20.50488281 C-3.63728511 16.74261875 -4.49315131 15.52994778 -7.54296875 13.296875 C-11.04296875 12.63020833 -11.04296875 12.63020833 -14.54296875 13.296875 C-16.90794314 15.16396005 -18.2032759 16.61748931 -19.54296875 19.296875 C-19.69738084 21.40062496 -19.79289514 23.50882619 -19.859375 25.6171875 C-19.90126953 26.87402344 -19.94316406 28.13085938 -19.98632812 29.42578125 C-20.02564453 30.74449219 -20.06496094 32.06320313 -20.10546875 33.421875 C-20.14866387 34.76173251 -20.19227848 36.10157656 -20.23632812 37.44140625 C-20.34267785 40.7264312 -20.44335192 44.01163898 -20.54296875 47.296875 C-25.82296875 47.296875 -31.10296875 47.296875 -36.54296875 47.296875 C-36.54296875 31.786875 -36.54296875 16.276875 -36.54296875 0.296875 C-31.26296875 0.296875 -25.98296875 0.296875 -20.54296875 0.296875 C-20.54296875 1.946875 -20.54296875 3.596875 -20.54296875 5.296875 C-19.91390625 4.86375 -19.28484375 4.430625 -18.63671875 3.984375 C-11.88691317 -0.40706477 -7.79512087 -2.15533296 0 0 Z " fill="#070707" transform="translate(594.54296875,50.703125)"/>
<path d="M0 0 C4.95 0 9.9 0 15 0 C15 5.61 15 11.22 15 17 C18.3 17 21.6 17 25 17 C25 20.96 25 24.92 25 29 C21.7 29 18.4 29 15 29 C15.14046255 31.95867918 15.28712224 34.91682264 15.4375 37.875 C15.47681641 38.71675781 15.51613281 39.55851562 15.55664062 40.42578125 C15.59853516 41.23144531 15.64042969 42.03710938 15.68359375 42.8671875 C15.72025146 43.61081543 15.75690918 44.35444336 15.79467773 45.12060547 C15.89955865 47.08864312 15.89955865 47.08864312 17 49 C18.98 49 20.96 49 23 49 C23.67305018 50.60149886 24.33822227 52.20631029 25 53.8125 C25.37125 54.70582031 25.7425 55.59914062 26.125 56.51953125 C27 59 27 59 27 62 C21.11053479 64.74183669 15.38133361 64.6188447 9 64 C3.64754997 61.84023946 1.99659442 58.69945363 -0.17749023 53.64086914 C-1.64088079 48.94229518 -1.41775817 44.31216516 -1.25 39.4375 C-1.23195313 38.42880859 -1.21390625 37.42011719 -1.1953125 36.38085938 C-1.14865249 33.91954395 -1.0832157 31.46030429 -1 29 C-2.98 29 -4.96 29 -7 29 C-7 25.04 -7 21.08 -7 17 C-4.69 17 -2.38 17 0 17 C0 11.39 0 5.78 0 0 Z " fill="#030303" transform="translate(621,35)"/>
<path d="M0 0 C4.95 0 9.9 0 15 0 C15 5.61 15 11.22 15 17 C18.3 17 21.6 17 25 17 C25 20.96 25 24.92 25 29 C22.03 29 19.06 29 16 29 C16.33 35.93 16.66 42.86 17 50 C20.465 49.505 20.465 49.505 24 49 C24.50512244 50.60256108 25.00391627 52.20711792 25.5 53.8125 C25.7784375 54.70582031 26.056875 55.59914062 26.34375 56.51953125 C27 59 27 59 27 62 C21.61533511 65.3486722 15.08994908 64.56584893 9 64 C5.34372533 62.82786094 3.56096601 60.80521437 1.3671875 57.65625 C-0.68188511 52.1764444 -0.31504641 46.92018581 -0.1875 41.125 C-0.17396484 39.9596875 -0.16042969 38.794375 -0.14648438 37.59375 C-0.11125821 34.72868882 -0.06199715 31.86458623 0 29 C-2.31 29 -4.62 29 -7 29 C-7 25.04 -7 21.08 -7 17 C-4.69 17 -2.38 17 0 17 C0 11.39 0 5.78 0 0 Z " fill="#030303" transform="translate(498,35)"/>
<path d="M0 0 C5.61 0 11.22 0 17 0 C17 24.75 17 49.5 17 75 C11.39 75 5.78 75 0 75 C0 50.25 0 25.5 0 0 Z " fill="#030303" transform="translate(830,23)"/>
<path d="M0 0 C5.61 0 11.22 0 17 0 C17 24.75 17 49.5 17 75 C11.39 75 5.78 75 0 75 C0 50.25 0 25.5 0 0 Z " fill="#070707" transform="translate(531,23)"/>
<path d="M0 0 C4.95 0 9.9 0 15 0 C15 25.41 15 50.82 15 77 C10.05 77 5.1 77 0 77 C0 51.59 0 26.18 0 0 Z " fill="#000000" transform="translate(708,21)"/>
<path d="M0 0 C0.76183594 0.07863281 1.52367187 0.15726563 2.30859375 0.23828125 C4.67570797 0.71006311 6.46308235 1.51584323 8.5625 2.6875 C7.14957905 7.5149799 5.13275846 11.4037359 2.5625 15.6875 C1.82 15.44 1.82 15.44 1.0625 15.1875 C-2.44869103 14.48526179 -5.9459589 13.81624021 -9.4375 14.6875 C-12.58678132 17.26761619 -14.24804663 18.78596567 -15.09692383 22.82543945 C-15.11263428 23.97230225 -15.12834473 25.11916504 -15.14453125 26.30078125 C-15.18803711 28.1715332 -15.18803711 28.1715332 -15.23242188 30.08007812 C-15.23822266 31.37365234 -15.24402344 32.66722656 -15.25 34 C-15.27513672 35.31291016 -15.30027344 36.62582031 -15.32617188 37.97851562 C-15.38500835 41.21452167 -15.41412441 44.45104354 -15.4375 47.6875 C-20.7175 47.6875 -25.9975 47.6875 -31.4375 47.6875 C-31.4375 32.5075 -31.4375 17.3275 -31.4375 1.6875 C-26.1575 1.6875 -20.8775 1.6875 -15.4375 1.6875 C-15.1075 3.3375 -14.7775 4.9875 -14.4375 6.6875 C-13.96699219 6.26597656 -13.49648438 5.84445313 -13.01171875 5.41015625 C-12.38910156 4.86230469 -11.76648438 4.31445312 -11.125 3.75 C-10.51011719 3.20472656 -9.89523437 2.65945312 -9.26171875 2.09765625 C-6.1574748 -0.30198415 -3.74658464 -0.4233072 0 0 Z " fill="#020202" transform="translate(371.4375,50.3125)"/>
<path d="M0 0 C0 16.83 0 33.66 0 51 C-7.59 51 -15.18 51 -23 51 C-25.2616287 18.60127135 -25.2616287 18.60127135 -20.1640625 12.50390625 C-17.31716645 10.04574141 -14.18008088 8.32975722 -10.74853516 6.81591797 C-8.27490563 5.66164962 -6.28906855 4.03755353 -4.1875 2.3125 C-1 0 -1 0 0 0 Z " fill="#060606" transform="translate(137,72)"/>
<path d="M0 0 C2.875 2.4375 2.875 2.4375 5 5 C5.33 5.33 5.66 5.66 6 6 C6.55720584 9.78103961 6.84003776 13.47978241 4.953125 16.89453125 C2.09300852 20.35190735 0.23229602 21.83086133 -4.1875 22.4375 C-8.56308749 21.9353834 -10.52141927 20.97075618 -13.66796875 17.98046875 C-15.79244785 14.82178575 -15.83018573 12.07033672 -15.56640625 8.34375 C-14.69948011 4.75646942 -12.93862097 3.1185407 -10 1 C-6.36217368 -0.21260877 -3.82264001 -0.39544552 0 0 Z " fill="#F8F8F8" transform="translate(307,64)"/>
<path d="M0 0 C0.66 0 1.32 0 2 0 C3.17495143 2.93425371 4.33850852 5.87289513 5.5 8.8125 C5.83386719 9.64587891 6.16773438 10.47925781 6.51171875 11.33789062 C6.82753906 12.14033203 7.14335938 12.94277344 7.46875 13.76953125 C7.76201172 14.50792236 8.05527344 15.24631348 8.35742188 16.00708008 C9 18 9 18 9 21 C3.72 21 -1.56 21 -7 21 C-4.9376064 13.88474206 -2.59810321 6.93706745 0 0 Z " fill="#F1F1F1" transform="translate(788,47)"/>
<path d="M0 0 C2.5 1.8125 2.5 1.8125 4 4 C4 4.99 4 5.98 4 7 C-1.61 7 -7.22 7 -13 7 C-10.26800557 0.17001393 -7.10395401 -1.18637461 0 0 Z " fill="#F8F8F8" transform="translate(680,61)"/>
<path d="M0 0 C3 1.8125 3 1.8125 5 4 C5 4.99 5 5.98 5 7 C-0.61 7 -6.22 7 -12 7 C-11.67 5.35 -11.34 3.7 -11 2 C-7.31028744 -0.45980837 -4.28401332 -0.69177647 0 0 Z " fill="#F8F8F8" transform="translate(467,61)"/>
</svg>
